<svg xmlns="http://www.w3.org/2000/svg" xmlns:xlink="http://www.w3.org/1999/xlink" width="1165" height="157.028" viewBox="0 0 1165 157.028">
  <defs>
    <clipPath id="clip-path">
      <path id="Path_1" data-name="Path 1" d="M0,0H72.853V72.853H0Z" fill="#fe0" stroke="#707070" stroke-width="1"/>
    </clipPath>
    <clipPath id="clip-path-2">
      <path id="Path_1-2" data-name="Path 1" d="M0,0H72.853V72.853H0Z" fill="#fe0"/>
    </clipPath>
    <clipPath id="clip-path-3">
      <path id="Path_1-3" data-name="Path 1" d="M0,0H72.853V72.853H0Z" fill="#fe0" stroke="#707070" stroke-miterlimit="10" stroke-width="1"/>
    </clipPath>
  </defs>
  <g id="Group_2821" data-name="Group 2821" transform="translate(-354 -519)">
    <g id="Group_59" data-name="Group 59" transform="translate(354 519)">
      <text id="Lorem_ipsum_dolor_sit_amet_consectetur_adipiscing_elit_sed_do_eiusmod_tempor_" data-name="Lorem ipsum dolor sit amet, consectetur adipiscing elit, sed 
do eiusmod tempor  " transform="translate(0 122.028)" fill="#fff" font-size="14" font-family="Montserrat-Regular, Montserrat"><tspan x="37.689" y="14">Lorem ipsum dolor sit amet, </tspan></text>
      <g id="Mask_Group_1" data-name="Mask Group 1" transform="translate(100.172)" clip-path="url(#clip-path)">
        <g id="watch" transform="translate(13.009)">
          <g id="Group_65" data-name="Group 65" transform="translate(0)">
            <path id="Path_29" data-name="Path 29" d="M53.314,10.408h-.572L50.634,1.97A2.6,2.6,0,0,0,48.11,0H27.3a2.6,2.6,0,0,0-2.524,1.97l-2.108,8.438h-.572a7.806,7.806,0,0,0-7.806,7.806V54.64a7.806,7.806,0,0,0,7.806,7.806h.572l2.108,8.438a2.6,2.6,0,0,0,2.524,1.97H48.11a2.6,2.6,0,0,0,2.524-1.97l2.108-8.438h.572A7.806,7.806,0,0,0,61.12,54.64V18.213A7.806,7.806,0,0,0,53.314,10.408ZM29.327,5.2H46.078l1.3,5.2H28.026ZM46.078,67.649H29.327l-1.3-5.2H47.379ZM55.916,54.64a2.6,2.6,0,0,1-2.6,2.6H22.091a2.6,2.6,0,0,1-2.6-2.6V39.028H23.3l4.423,6.648a2.6,2.6,0,0,0,4.6-.52l5.115-13.6,5.586,18.624A2.6,2.6,0,0,0,45.4,52.035h.1A2.6,2.6,0,0,0,47.925,50.4l4.548-11.373h3.442Zm0-20.815h-5.2a2.6,2.6,0,0,0-2.417,1.634L45.86,41.552,40.2,22.67a2.6,2.6,0,0,0-2.407-1.855A2.672,2.672,0,0,0,35.265,22.5L29.244,38.563l-2.386-3.58a2.6,2.6,0,0,0-2.165-1.158h-5.2V18.213a2.6,2.6,0,0,1,2.6-2.6H53.314a2.6,2.6,0,0,1,2.6,2.6V33.825Z" transform="translate(-14.286)" fill="#fe0"/>
          </g>
        </g>
      </g>
      <text id="Spend_time_smart" data-name="Spend time smart" transform="translate(131.299 107.066)" fill="#fff" font-size="15" font-family="Montserrat-Bold, Montserrat" font-weight="700"><tspan x="-70.605" y="0">Spend time smart</tspan></text>
    </g>
    <g id="Group_61" data-name="Group 61" transform="translate(649 519)">
      <text id="Lorem_ipsum_dolor_sit_amet_consectetur_adipiscing_elit_sed_do_eiusmod_tempor_2" data-name="Lorem ipsum dolor sit amet, consectetur adipiscing elit, sed 
do eiusmod tempor  " transform="translate(0 122.028)" fill="#fff" font-size="14" font-family="Montserrat-Regular, Montserrat"><tspan x="37.689" y="14">Lorem ipsum dolor sit amet, </tspan></text>
      <g id="Symbol_3_1" data-name="Symbol 3 – 1" transform="translate(100.172)">
        <g id="Mask_Group_3" data-name="Mask Group 3" clip-path="url(#clip-path-2)">
          <g id="microphone" transform="translate(10.407)">
            <g id="Group_71" data-name="Group 71" transform="translate(13.009)">
              <g id="Group_70" data-name="Group 70">
                <path id="Path_32" data-name="Path 32" d="M38.724,0A13.009,13.009,0,0,0,25.714,13.009V28.621a13.009,13.009,0,1,0,26.019,0V13.009A13.009,13.009,0,0,0,38.724,0Zm7.806,28.621a7.806,7.806,0,1,1-15.611,0v-5.2H46.529Zm0-10.407H30.918v-5.2a7.806,7.806,0,1,1,15.611,0Z" transform="translate(-25.714)" fill="#fe0"/>
              </g>
            </g>
            <g id="Group_73" data-name="Group 73" transform="translate(0 20.815)">
              <g id="Group_72" data-name="Group 72">
                <path id="Path_33" data-name="Path 33" d="M60.864,69.691H40.049V53.926A23.443,23.443,0,0,0,60.864,30.663v-5.2a2.6,2.6,0,1,0-5.2,0v5.2a18.213,18.213,0,0,1-36.426,0v-5.2a2.6,2.6,0,0,0-5.2,0v5.2A23.443,23.443,0,0,0,34.845,53.926V69.691H14.03a2.6,2.6,0,1,0,0,5.2H60.864a2.6,2.6,0,1,0,0-5.2Z" transform="translate(-11.428 -22.857)" fill="#fe0"/>
              </g>
            </g>
          </g>
        </g>
      </g>
      <text id="Audio_podcast" data-name="Audio podcast" transform="translate(132.049 107.066)" fill="#fff" font-size="15" font-family="Montserrat-Bold, Montserrat" font-weight="700"><tspan x="-56.887" y="0">Audio podcast</tspan></text>
    </g>
    <g id="Group_62" data-name="Group 62" transform="translate(947 519)">
      <text id="Lorem_ipsum_dolor_sit_amet_consectetur_adipiscing_elit_sed_do_eiusmod_tempor_3" data-name="Lorem ipsum dolor sit amet, consectetur adipiscing elit, sed 
do eiusmod tempor  " transform="translate(0 122.028)" fill="#fff" font-size="14" font-family="Montserrat-Regular, Montserrat"><tspan x="37.689" y="14">Lorem ipsum dolor sit amet, </tspan></text>
      <g id="Symbol_4_1" data-name="Symbol 4 – 1" transform="translate(100.172 0)">
        <g id="Mask_Group_4" data-name="Mask Group 4" clip-path="url(#clip-path-3)">
          <g id="line-chart" transform="translate(0.004 0)">
            <g id="Group_74" data-name="Group 74" transform="translate(0 0)">
              <path id="Path_34" data-name="Path 34" d="M71.5,25.556a2.8,2.8,0,0,0-3.843.951c-.023.038-.045.076-.066.115L58.8,42l-4.812-8.253L72.4,4.288a2.8,2.8,0,1,0-4.759-2.967L50.8,28.279,41.653,12.6A2.8,2.8,0,0,0,39.3,11.2a2.735,2.735,0,0,0-2.413,1.274l-6.377,9.8L24.857,12.6a2.8,2.8,0,0,0-2.363-1.4,2.984,2.984,0,0,0-2.419,1.3L.48,43.292a2.8,2.8,0,0,0,.858,3.865h0A2.8,2.8,0,0,0,5.2,46.3v0L22.334,19.38l4.759,8.163L.5,68.464a2.8,2.8,0,1,0,4.609,3.178q.043-.062.083-.127L30.257,32.957l9.358,16.038a2.8,2.8,0,0,0,2.377,1.4h.042a2.8,2.8,0,0,0,2.374-1.316l6.231-9.969,5.772,9.885a3.012,3.012,0,0,0,2.419,1.4,2.8,2.8,0,0,0,2.419-1.4l11.2-19.6A2.8,2.8,0,0,0,71.5,25.556ZM42.115,42.181,33.669,27.7l5.436-8.362,8.345,14.3Z" transform="translate(-0.004 0)" fill="#fe0"/>
            </g>
          </g>
        </g>
      </g>
      <text id="Boost_your_time" data-name="Boost your time" transform="translate(133.44 107.066)" fill="#fff" font-size="15" font-family="Montserrat-Bold, Montserrat" font-weight="700"><tspan x="-62.887" y="0">Boost your time</tspan></text>
    </g>
    <g id="Group_64" data-name="Group 64" transform="translate(1245 519)">
      <text id="Lorem_ipsum_dolor_sit_amet_consectetur_adipiscing_elit_sed_do_eiusmod_tempor_4" data-name="Lorem ipsum dolor sit amet, consectetur adipiscing elit, sed 
do eiusmod tempor  " transform="translate(0 122.028)" fill="#fff" font-size="14" font-family="Montserrat-Regular, Montserrat"><tspan x="37.689" y="14">Lorem ipsum dolor sit amet, </tspan></text>
      <g id="Symbol_6_1" data-name="Symbol 6 – 1" transform="translate(100.172 0)">
        <g id="Mask_Group_6" data-name="Mask Group 6" clip-path="url(#clip-path-3)">
          <g id="diamond" transform="translate(0 0.005)">
            <g id="Group_79" data-name="Group 79" transform="translate(0 0)">
              <path id="Path_37" data-name="Path 37" d="M72.827,20.537a2.732,2.732,0,0,0-.052-.32,2.445,2.445,0,0,0-.127-.349,2.427,2.427,0,0,0-.094-.26l-.029-.039-.016-.049L62.1,1.307c-.036-.065-.094-.117-.135-.177a2.035,2.035,0,0,0-.143-.19,2.619,2.619,0,0,0-.684-.6h-.026a2.6,2.6,0,0,0-.835-.276C60.2.055,60.122.042,60.041.037s-.133-.031-.2-.031H13.009c-.065,0-.127.021-.193.026a2.385,2.385,0,0,0-.239.031,2.638,2.638,0,0,0-.833.276h-.026a2.622,2.622,0,0,0-.684.6,2,2,0,0,0-.143.19c-.042.06-.1.112-.135.177L.349,19.515l-.016.039L.3,19.593a2.352,2.352,0,0,0-.094.26,2.439,2.439,0,0,0-.127.349,2.694,2.694,0,0,0-.042.32A2.411,2.411,0,0,0,0,20.9a2.562,2.562,0,0,0,.039.312,2.9,2.9,0,0,0,.073.364,2.241,2.241,0,0,0,.117.284,2.648,2.648,0,0,0,.112.26c.018.031.044.052.065.083a.731.731,0,0,0,.039.078L34.265,71.7l.013.018a2.554,2.554,0,0,0,.507.539,2.113,2.113,0,0,0,.177.122,2.489,2.489,0,0,0,.492.26c.07.029.138.057.211.081a2.33,2.33,0,0,0,1.52,0c.073-.023.141-.052.211-.081a2.489,2.489,0,0,0,.492-.26q.091-.057.177-.122a2.555,2.555,0,0,0,.507-.539l.013-.018L72.4,22.288a.73.73,0,0,0,.039-.078c.021-.031.047-.052.065-.083a2.636,2.636,0,0,0,.112-.26,2.243,2.243,0,0,0,.117-.284,2.9,2.9,0,0,0,.073-.364,2.546,2.546,0,0,0,.049-.32A2.435,2.435,0,0,0,72.827,20.537ZM55.36,5.21,49.191,16,41.482,5.21ZM44.38,18.219H28.472L36.426,7.086ZM31.371,5.21,23.661,16,17.492,5.21ZM13.009,7.85l5.925,10.369H7.088ZM7.545,23.423H21.411l8.675,32.958ZM36.426,60.034,26.8,23.423H46.053Zm6.341-3.653,8.675-32.958H65.307ZM53.919,18.219,59.843,7.85l5.922,10.369Z" transform="translate(0 -0.006)" fill="#fe0"/>
            </g>
          </g>
        </g>
      </g>
      <text id="Quality" transform="translate(133.368 107.066)" fill="#fff" font-size="15" font-family="Montserrat-Bold, Montserrat" font-weight="700"><tspan x="-28.298" y="0">Quality</tspan></text>
    </g>
  </g>
</svg>
