<svg xmlns="http://www.w3.org/2000/svg" width="35" height="35" viewBox="0 0 35 35">
  <g id="Group_2820" data-name="Group 2820" transform="translate(-170 -18)">
    <g id="Path_1872" data-name="Path 1872" transform="translate(173 20)" fill="none">
      <path d="M15,0a15.171,15.171,0,0,1,7.511,2.013A15,15,0,1,1,15,0Z" stroke="none"/>
      <path d="M 15 1 C 11.26046943664551 1 7.744760513305664 2.456249237060547 5.100509643554688 5.100509643554688 C 2.456249237060547 7.744760513305664 1 11.26046943664551 1 15 C 1 18.73952865600586 2.456249237060547 22.25523948669434 5.100509643554688 24.89949035644531 C 7.744760513305664 27.54375076293945 11.26046943664551 29 15 29 C 18.73952865600586 29 22.25523948669434 27.54375076293945 24.89949035644531 24.89949035644531 C 27.54375076293945 22.25523948669434 29 18.73952865600586 29 15 C 29 12.46736907958984 28.32069969177246 9.981899261474609 27.03554916381836 7.81226921081543 C 25.79896926879883 5.724649429321289 24.06641006469727 4.021579742431641 22.02404022216797 2.886529922485352 C 19.74687957763672 1.617090225219727 17.44929885864258 1 15 1 M 15 0 C 17.64268112182617 0 20.12574005126953 0.6833992004394531 22.51095962524414 2.013080596923828 C 26.88549995422363 4.444240570068359 30 9.358409881591797 30 15 C 30 23.28426933288574 23.28426933288574 30 15 30 C 6.715730667114258 30 0 23.28426933288574 0 15 C 0 6.715730667114258 6.715730667114258 0 15 0 Z" stroke="none" fill="#8d89fc"/>
    </g>
    <text id="L" transform="translate(182 42)" fill="#fff" stroke="#8d89fc" stroke-width="1" font-size="20" font-family="Montserrat-Bold, Montserrat" font-weight="700" letter-spacing="0.01em"><tspan x="0" y="0">L</tspan></text>
    <g id="Group_2819" data-name="Group 2819">
      <rect id="Rectangle_1516" data-name="Rectangle 1516" width="35" height="35" rx="11" transform="translate(170 18)" fill="#5f41b6"/>
      <g id="Group_2790" data-name="Group 2790" transform="translate(180.769 21.59)">
        <text id="L-2" data-name="L" transform="translate(0 20)" fill="#fe0" stroke="#fe0" stroke-width="1" font-size="21" font-family="Montserrat-Bold, Montserrat" font-weight="700" letter-spacing="0.01em"><tspan x="0" y="0">L</tspan></text>
      </g>
    </g>
  </g>
</svg>
